<svg width="20" height="20" viewBox="0 0 20 20" fill="none" xmlns="http://www.w3.org/2000/svg">
<path d="M7.50002 5.83333H10.8334M7.50002 12.5H10M7.50002 9.16667H12.5M15.8334 9.16667V7.5C15.8334 5.14333 15.8334 3.96417 15.1009 3.2325C14.3692 2.5 13.19 2.5 10.8334 2.5H9.16669C6.81002 2.5 5.63085 2.5 4.89919 3.2325C4.16669 3.96417 4.16669 5.14333 4.16669 7.5V12.5C4.16669 14.8567 4.16669 16.0358 4.89919 16.7675C5.63085 17.5 6.81002 17.5 9.16669 17.5H10" stroke="#DAAA2F" stroke-width="1.25" stroke-linecap="round"/>
<path d="M14.5833 16.6667C15.7339 16.6667 16.6667 15.7339 16.6667 14.5833C16.6667 13.4327 15.7339 12.5 14.5833 12.5C13.4327 12.5 12.5 13.4327 12.5 14.5833C12.5 15.7339 13.4327 16.6667 14.5833 16.6667Z" stroke="#DAAA2F" stroke-width="1.25" stroke-linecap="round"/>
<path d="M17.5 17.5L16.25 16.25" stroke="#DAAA2F" stroke-width="1.25" stroke-linecap="round"/>
</svg>
