<svg width="18" height="18" viewBox="0 0 18 18" fill="none" xmlns="http://www.w3.org/2000/svg">
<g clip-path="url(#clip0_31_2079)">
<path fill-rule="evenodd" clip-rule="evenodd" d="M5.94 6.36299L2.25 7.88174L1.5075 7.58924L0 3.94424L1.035 3.51674L1.94625 5.71049C2.55798 4.17959 3.67054 2.90123 5.10237 2.08406C6.53419 1.2669 8.20072 0.959184 9.82995 1.21114C11.4592 1.4631 12.9549 2.25985 14.073 3.47135C15.1911 4.68285 15.8655 6.23757 15.9863 7.88174H14.8613C14.7325 6.47692 14.1259 5.15873 13.1426 4.14717C12.1594 3.13561 10.8589 2.49186 9.45831 2.32337C8.0577 2.15488 6.64167 2.47183 5.44654 3.22132C4.25141 3.97082 3.34947 5.10753 2.89125 6.44174L5.50125 5.31674L5.94 6.36299ZM15.9075 9.37799L17.415 13.0117L16.38 13.5067L15.4575 11.2567C14.8409 12.7936 13.7202 14.0753 12.2793 14.8914C10.8384 15.7074 9.16285 16.0094 7.52768 15.7478C5.89251 15.4862 4.39485 14.6765 3.28048 13.4516C2.16612 12.2266 1.50125 10.6593 1.395 9.00674H2.52V8.44424C2.52316 9.89264 3.03525 11.2939 3.96677 12.403C4.89829 13.5121 6.18997 14.2585 7.61605 14.5118C9.04212 14.7652 10.5119 14.5092 11.7684 13.7888C13.0249 13.0683 13.9882 11.9292 14.49 10.5705L11.9588 11.6167L11.52 10.5817L15.1763 9.06299L15.9075 9.37799Z" fill="#E66D16" stroke="white" stroke-width="0.1"/>
<path d="M8.7075 9.60754C9.32882 9.60754 9.8325 9.10386 9.8325 8.48254C9.8325 7.86122 9.32882 7.35754 8.7075 7.35754C8.08618 7.35754 7.5825 7.86122 7.5825 8.48254C7.5825 9.10386 8.08618 9.60754 8.7075 9.60754Z" fill="#E66D16"/>
</g>
<defs>
<clipPath id="clip0_31_2079">
<rect width="18" height="18" fill="white"/>
</clipPath>
</defs>
</svg>
