<svg width="20" height="20" viewBox="0 0 20 20" fill="none" xmlns="http://www.w3.org/2000/svg">
<path d="M6.705 13.295C6.86792 13.4579 7.13208 13.4579 7.295 13.295L10 10.59L12.705 13.295C12.8679 13.4579 13.1321 13.4579 13.295 13.295C13.4579 13.1321 13.4579 12.8679 13.295 12.705L10.59 10L13.295 7.295C13.4579 7.13208 13.4579 6.86792 13.295 6.705C13.1321 6.54208 12.8679 6.54208 12.705 6.705L10 9.41L7.295 6.705C7.13208 6.54208 6.86792 6.54208 6.705 6.705C6.54208 6.86792 6.54208 7.13208 6.705 7.295L9.41 10L6.705 12.705C6.54208 12.8679 6.54208 13.1321 6.705 13.295ZM10.0025 17.5C8.96583 17.5 7.99083 17.3033 7.0775 16.91C6.16472 16.5161 5.37056 15.9817 4.695 15.3067C4.01944 14.6322 3.48472 13.8389 3.09083 12.9267C2.69694 12.0144 2.5 11.0397 2.5 10.0025C2.5 8.96583 2.69667 7.99083 3.09 7.0775C3.48389 6.16472 4.01833 5.37056 4.69333 4.695C5.36778 4.01944 6.16111 3.48472 7.07333 3.09083C7.98556 2.69694 8.96028 2.5 9.9975 2.5C11.0342 2.5 12.0092 2.69667 12.9225 3.09C13.8353 3.48389 14.6294 4.01833 15.305 4.69333C15.9806 5.36778 16.5153 6.16111 16.9092 7.07333C17.3031 7.98556 17.5 8.96028 17.5 9.9975C17.5 11.0342 17.3033 12.0092 16.91 12.9225C16.5161 13.8353 15.9817 14.6294 15.3067 15.305C14.6322 15.9806 13.8389 16.5153 12.9267 16.9092C12.0144 17.3031 11.0397 17.5 10.0025 17.5ZM10 16.6667C11.8611 16.6667 13.4375 16.0208 14.7292 14.7292C16.0208 13.4375 16.6667 11.8611 16.6667 10C16.6667 8.13889 16.0208 6.5625 14.7292 5.27083C13.4375 3.97917 11.8611 3.33333 10 3.33333C8.13889 3.33333 6.5625 3.97917 5.27083 5.27083C3.97917 6.5625 3.33333 8.13889 3.33333 10C3.33333 11.8611 3.97917 13.4375 5.27083 14.7292C6.5625 16.0208 8.13889 16.6667 10 16.6667Z" fill="#848484" stroke="#848484" stroke-width="0.2"/>
</svg>
