<svg width="18" height="18" viewBox="0 0 18 18" fill="none" xmlns="http://www.w3.org/2000/svg">
<path d="M7.875 6.1875C7.875 5.87684 7.62316 5.625 7.3125 5.625C7.00184 5.625 6.75 5.87684 6.75 6.1875V11.8125C6.75 12.1232 7.00184 12.375 7.3125 12.375C7.62316 12.375 7.875 12.1232 7.875 11.8125V6.1875ZM11.25 6.1875C11.25 5.87684 10.9982 5.625 10.6875 5.625C10.3768 5.625 10.125 5.87684 10.125 6.1875V11.8125C10.125 12.1232 10.3768 12.375 10.6875 12.375C10.9982 12.375 11.25 12.1232 11.25 11.8125V6.1875Z" fill="#0D7ADE"/>
<path d="M9 2.25C10.335 2.25 11.6401 2.64588 12.7501 3.38758C13.8601 4.12928 14.7253 5.18349 15.2362 6.41689C15.7471 7.65029 15.8808 9.00749 15.6203 10.3169C15.3599 11.6262 14.717 12.829 13.773 13.773C12.829 14.717 11.6262 15.3598 10.3169 15.6203C9.00749 15.8808 7.65029 15.7471 6.41689 15.2362C5.18349 14.7253 4.12928 13.8601 3.38758 12.7501C2.64588 11.6401 2.25 10.335 2.25 9C2.25 7.20979 2.96116 5.4929 4.22703 4.22703C5.4929 2.96116 7.20979 2.25 9 2.25ZM9 1.125C7.44248 1.125 5.91992 1.58686 4.62489 2.45218C3.32985 3.31749 2.32049 4.5474 1.72445 5.98637C1.12841 7.42534 0.972461 9.00874 1.27632 10.5363C1.58018 12.0639 2.3302 13.4671 3.43154 14.5685C4.53288 15.6698 5.93607 16.4198 7.46367 16.7237C8.99127 17.0275 10.5747 16.8716 12.0136 16.2756C13.4526 15.6795 14.6825 14.6702 15.5478 13.3751C16.4131 12.0801 16.875 10.5575 16.875 9C16.875 6.91142 16.0453 4.90838 14.5685 3.43153C13.0916 1.95469 11.0886 1.125 9 1.125Z" fill="#0D7ADE"/>
</svg>
