<svg width="18" height="18" viewBox="0 0 18 18" fill="none" xmlns="http://www.w3.org/2000/svg">
<path d="M3.984 8.0715C6.1725 4.19025 7.26675 2.25 9 2.25C10.7325 2.25 11.8275 4.19025 14.016 8.0715L14.289 8.5545C16.1077 11.7795 17.0175 13.392 16.1955 14.571C15.3735 15.75 13.3395 15.75 9.273 15.75H8.727C4.6605 15.75 2.6265 15.75 1.8045 14.571C0.982497 13.392 1.89225 11.7795 3.711 8.5545L3.984 8.0715Z" stroke="#DA0808" stroke-width="1.25"/>
<path d="M9 6V9.75" stroke="#DA0808" stroke-width="1.25" stroke-linecap="round"/>
<path d="M9 12.75C9.41421 12.75 9.75 12.4142 9.75 12C9.75 11.5858 9.41421 11.25 9 11.25C8.58579 11.25 8.25 11.5858 8.25 12C8.25 12.4142 8.58579 12.75 9 12.75Z" fill="#DA0808"/>
</svg>
