<svg width="20" height="21" viewBox="0 0 20 21" fill="none" xmlns="http://www.w3.org/2000/svg">
<path d="M7.54554 19.4583C8.68471 19.4583 9.60387 19.4583 10.3264 19.3608C11.0764 19.2608 11.708 19.0441 12.2097 18.5433C12.6464 18.1058 12.868 17.5683 12.9839 16.9366C13.0964 16.3224 13.118 15.5716 13.123 14.6699C13.1239 14.5042 13.0589 14.3448 12.9423 14.227C12.8258 14.1092 12.6671 14.0425 12.5014 14.0416C12.3356 14.0407 12.1763 14.1057 12.0585 14.2223C11.9406 14.3389 11.8739 14.4975 11.873 14.6633C11.868 15.5741 11.8447 16.2199 11.7547 16.7108C11.6672 17.1824 11.528 17.4566 11.3255 17.6591C11.0947 17.8899 10.7705 18.0399 10.1589 18.1224C9.5297 18.2066 8.69554 18.2083 7.49971 18.2083H6.66637C5.46971 18.2083 4.63554 18.2066 4.00637 18.1224C3.39471 18.0399 3.07137 17.8891 2.83971 17.6591C2.60971 17.4283 2.45971 17.1049 2.37721 16.4924C2.29221 15.8641 2.29137 15.0291 2.29137 13.8333L2.29137 7.16659C2.29137 5.97075 2.29221 5.13659 2.37721 4.50659C2.45971 3.89492 2.60971 3.57159 2.84054 3.34076C3.07137 3.10992 3.39471 2.95992 4.00637 2.87742C4.63554 2.79325 5.46971 2.79159 6.66637 2.79159H7.49971C8.69554 2.79159 9.52971 2.79325 10.1597 2.87742C10.7705 2.95992 11.0947 3.11076 11.3255 3.34076C11.528 3.54409 11.6672 3.81742 11.7547 4.28909C11.8447 4.77992 11.868 5.42575 11.873 6.33659C11.8735 6.41866 11.8901 6.49985 11.9219 6.57551C11.9537 6.65117 12.0001 6.71983 12.0585 6.77755C12.1168 6.83528 12.1859 6.88095 12.2619 6.91195C12.3379 6.94296 12.4193 6.95869 12.5014 6.95825C12.5834 6.95782 12.6646 6.94122 12.7403 6.9094C12.816 6.87759 12.8846 6.83119 12.9423 6.77284C13.0001 6.71449 13.0457 6.64535 13.0767 6.56935C13.1077 6.49336 13.1235 6.412 13.123 6.32992C13.118 5.42825 13.0964 4.67742 12.9839 4.06325C12.8672 3.43159 12.6464 2.89409 12.2089 2.45659C11.708 1.95492 11.0755 1.73992 10.3255 1.63825C9.60387 1.54159 8.68471 1.54159 7.54554 1.54159H6.62054C5.48054 1.54159 4.56221 1.54159 3.83971 1.63825C3.08971 1.73992 2.45804 1.95492 1.95637 2.45659C1.45471 2.95825 1.23971 3.58992 1.13804 4.33992C1.04137 5.06242 1.04137 5.98159 1.04137 7.12075L1.04137 13.8791C1.04137 15.0183 1.04137 15.9374 1.13804 16.6599C1.23887 17.4099 1.45471 18.0416 1.95637 18.5433C2.45804 19.0449 3.08971 19.2599 3.83971 19.3608C4.56221 19.4583 5.48137 19.4583 6.62054 19.4583H7.54554Z" fill="white" stroke="white" stroke-width="0.5"/>
<path d="M7.5 11.1249C7.33424 11.1249 7.17527 11.0591 7.05806 10.9419C6.94085 10.8247 6.875 10.6657 6.875 10.4999C6.875 10.3342 6.94085 10.1752 7.05806 10.058C7.17527 9.94079 7.33424 9.87494 7.5 9.87494L16.6442 9.87494L15.01 8.47494C14.884 8.36709 14.8061 8.21361 14.7932 8.04826C14.7804 7.88292 14.8338 7.71925 14.9417 7.59328C15.0495 7.4673 15.203 7.38932 15.3684 7.37651C15.5337 7.36369 15.6974 7.41709 15.8233 7.52494L18.74 10.0249C18.8086 10.0836 18.8637 10.1565 18.9015 10.2385C18.9392 10.3205 18.9588 10.4097 18.9588 10.4999C18.9588 10.5902 18.9392 10.6794 18.9015 10.7614C18.8637 10.8434 18.8086 10.9163 18.74 10.9749L15.8233 13.4749C15.761 13.5283 15.6887 13.5689 15.6106 13.5944C15.5325 13.6199 15.4502 13.6297 15.3684 13.6234C15.2865 13.617 15.2067 13.5946 15.1335 13.5574C15.0602 13.5202 14.9951 13.469 14.9417 13.4066C14.8883 13.3442 14.8477 13.2719 14.8222 13.1939C14.7967 13.1158 14.7869 13.0335 14.7932 12.9516C14.7996 12.8698 14.822 12.7899 14.8592 12.7167C14.8964 12.6435 14.9476 12.5783 15.01 12.5249L16.6433 11.1249L7.5 11.1249Z" fill="white" stroke="white" stroke-width="0.5"/>
</svg>
