<svg width="98" height="98" viewBox="0 0 98 98" fill="none" xmlns="http://www.w3.org/2000/svg">
<path opacity="0.5" d="M80.5871 29.8513C80.1627 29.375 79.6695 28.9649 79.1238 28.6345C78.0232 27.9783 76.7458 27.6804 75.4684 27.7823C74.1934 27.8767 72.9808 28.3707 72.0029 29.1942C71.7628 29.3984 71.5396 29.6215 71.3354 29.8616L70.9042 30.3647L70.0981 31.3145L69.9133 31.4994C69.5627 30.3382 68.9436 29.2758 68.1061 28.3984C66.9725 27.2266 65.5075 26.4297 63.9078 26.1149C62.3081 25.8001 60.6504 25.9825 59.1574 26.6374C57.6725 27.3187 56.4273 28.4315 55.584 29.8308C54.7338 31.2267 54.3379 32.8521 54.451 34.4827C54.5641 36.1132 55.1807 37.6684 56.2155 38.9335C57.2061 40.1505 58.5439 41.0369 60.0507 41.4749L58.8339 42.6917C56.693 44.7197 55.163 46.7117 55.8613 47.2867C56.5595 47.8617 58.6902 47.0762 61.1186 45.1098C62.0667 44.3397 62.9994 43.5611 63.9167 42.7738C64.0586 42.6513 64.1739 42.5011 64.2555 42.3323L64.3069 42.281C64.5048 41.8592 64.5983 41.3959 64.5795 40.9304C64.5608 40.4648 64.4303 40.0106 64.199 39.6061C64.1185 39.4709 64.0275 39.3421 63.9269 39.221L63.6856 38.9797L63.5111 38.8052C63.3935 38.6918 63.2664 38.5888 63.1311 38.4971C62.8774 38.3239 62.5987 38.1906 62.3046 38.1018C62.1683 38.0601 62.0293 38.0275 61.8887 38.0043L61.7295 37.9683C61.6269 37.9478 61.5344 37.917 61.442 37.8964C60.7129 37.6852 60.0592 37.2702 59.5578 36.7002C58.9734 36.0456 58.6182 35.2185 58.5459 34.344C58.4737 33.4695 58.6883 32.5952 59.1574 31.8536C59.3002 31.6409 59.4598 31.4401 59.6348 31.2529C59.981 30.883 60.3938 30.5817 60.8516 30.3647C61.7932 29.9412 62.8595 29.8862 63.8397 30.2107C64.826 30.553 65.6437 31.2604 66.1243 32.1873C66.2448 32.4223 66.3428 32.6681 66.417 32.9215C66.4529 33.0499 66.5042 33.2963 66.5094 33.3117C66.5145 33.3271 66.5453 33.553 66.5967 33.7378C66.6483 33.9308 66.7188 34.1183 66.8072 34.2974C66.9489 34.5854 67.1381 34.8475 67.3668 35.0727L67.5721 35.2781C67.6417 35.3556 67.7154 35.4292 67.7929 35.4988C67.9594 35.63 68.1403 35.742 68.332 35.8325C68.7135 36.0086 69.1286 36.0997 69.5488 36.0997C69.9689 36.0997 70.384 36.0086 70.7655 35.8325L70.8169 35.7812C70.9882 35.6991 71.1404 35.5819 71.2635 35.4372L74.1386 32.0898C74.4861 31.7514 74.9192 31.5142 75.3915 31.4038C75.8638 31.2934 76.3572 31.3141 76.8186 31.4634C77.1273 31.6082 77.4019 31.8163 77.6247 32.0744C77.6844 32.1239 77.7394 32.1789 77.789 32.2387L77.9687 32.4697L78.4102 33.055C78.9921 33.8422 79.5996 34.6277 80.2328 35.4115C81.5317 36.9877 82.9025 38.5125 84.3195 40.0014C85.7365 41.4903 87.21 42.9227 88.7349 44.3141L89.8849 45.3511L90.465 45.8594C90.5306 45.917 90.5923 45.9787 90.6499 46.0443C90.6957 46.0802 90.7371 46.1216 90.7731 46.1675C91.0744 46.5287 91.2329 46.9878 91.2187 47.4579C91.2045 47.9281 91.0186 48.3767 90.6961 48.7191L90.5729 48.8423L90.3008 49.1144L89.7155 49.6278L88.5603 50.6598C87.0235 52.046 85.5243 53.4699 84.0628 54.9314C81.1621 57.8321 78.3743 60.8869 75.7097 64.0341C75.2257 64.6668 74.9112 65.4125 74.7958 66.2007C74.7855 67.094 75.7148 66.6474 76.8494 65.8002C80.6076 62.9765 84.5814 59.3313 88.6784 55.645C89.9208 54.5395 91.1975 53.4681 92.5084 52.4311L92.9859 52.0357L93.2118 51.8098L93.525 51.4967C93.9546 51.0807 94.3151 50.5989 94.5929 50.0694C95.1598 49.0065 95.3823 47.7936 95.2295 46.5987C95.0798 45.3839 94.5579 44.2451 93.7355 43.3386C93.2272 42.82 92.9808 42.6455 92.6778 42.3426L91.764 41.5006C90.5523 40.3779 89.3612 39.2313 88.1906 38.0607C85.8529 35.7162 83.5956 33.298 81.4188 30.8063L80.5871 29.8513Z" fill="white"/>
<path opacity="0.5" d="M17.9354 67.4502C18.3597 67.9265 18.8529 68.3366 19.3986 68.667C20.4993 69.3232 21.7767 69.6211 23.0541 69.5192C24.329 69.4248 25.5417 68.9308 26.5196 68.1074C26.7596 67.9032 26.9828 67.68 27.187 67.4399L27.6183 66.9368L28.4244 65.987L28.6092 65.8021C28.9598 66.9634 29.5789 68.0257 30.4164 68.9031C31.5499 70.0749 33.015 70.8718 34.6147 71.1866C36.2143 71.5014 37.8721 71.3191 39.3651 70.6641C40.8499 69.9828 42.0951 68.87 42.9384 67.4707C43.7887 66.0748 44.1846 64.4494 44.0715 62.8188C43.9584 61.1883 43.3418 59.6331 42.3069 58.368C41.3163 57.151 39.9786 56.2646 38.4718 55.8266L39.6886 54.6098C41.8295 52.5819 43.3594 50.5898 42.6612 50.0148C41.963 49.4398 39.8323 50.2253 37.4039 52.1917C36.4558 52.9618 35.5231 53.7405 34.6058 54.5277C34.4639 54.6502 34.3486 54.8004 34.267 54.9692L34.2156 55.0206C34.0177 55.4424 33.9242 55.9056 33.9429 56.3711C33.9617 56.8367 34.0922 57.2909 34.3234 57.6954C34.404 57.8306 34.495 57.9594 34.5955 58.0805L34.8368 58.3218L35.0114 58.4963C35.129 58.6097 35.2561 58.7128 35.3913 58.8044C35.645 58.9776 35.9238 59.1109 36.2179 59.1997C36.3542 59.2414 36.4931 59.274 36.6338 59.2973L36.7929 59.3332C36.8956 59.3537 36.988 59.3845 37.0804 59.4051C37.8096 59.6163 38.4633 60.0313 38.9646 60.6013C39.5491 61.2559 39.9043 62.083 39.9766 62.9575C40.0488 63.832 39.8342 64.7063 39.3651 65.4479C39.2223 65.6606 39.0626 65.8615 38.8876 66.0486C38.5415 66.4185 38.1287 66.7198 37.6709 66.9368C36.7292 67.3604 35.663 67.4153 34.6828 67.0908C33.6964 66.7485 32.8788 66.0411 32.3981 65.1142C32.2776 64.8792 32.1797 64.6334 32.1055 64.38C32.0696 64.2517 32.0182 64.0052 32.0131 63.9898C32.0079 63.9744 31.9771 63.7485 31.9258 63.5637C31.8742 63.3707 31.8037 63.1832 31.7153 63.0041C31.5736 62.7161 31.3844 62.454 31.1557 62.2288L30.9503 62.0235C30.8807 61.946 30.8071 61.8723 30.7296 61.8027C30.563 61.6715 30.3822 61.5595 30.1905 61.469C29.809 61.293 29.3938 61.2018 28.9737 61.2018C28.5536 61.2018 28.1384 61.2929 27.7569 61.469L27.7056 61.5203C27.5343 61.6025 27.3821 61.7196 27.2589 61.8643L24.3838 65.2117C24.0364 65.5501 23.6032 65.7873 23.131 65.8977C22.6587 66.0081 22.1652 65.9875 21.7038 65.8381C21.3952 65.6933 21.1205 65.4852 20.8978 65.2271C20.838 65.1776 20.783 65.1226 20.7335 65.0628L20.5538 64.8318L20.1123 64.2465C19.5304 63.4593 18.9229 62.6738 18.2897 61.89C16.9907 60.3138 15.6199 58.789 14.2029 57.3001C12.7859 55.8112 11.3124 54.3788 9.7876 52.9875L8.63757 51.9504L8.05741 51.4421C7.9919 51.3845 7.93017 51.3228 7.87259 51.2573C7.82672 51.2213 7.78535 51.1799 7.74937 51.134C7.4481 50.7728 7.28957 50.3138 7.30376 49.8436C7.31795 49.3735 7.50387 48.9248 7.82638 48.5824L7.94959 48.4592L8.2217 48.1871L8.80699 47.6737L9.96216 46.6417C11.499 45.2555 12.9981 43.8317 14.4596 42.3702C17.3604 39.4694 20.1482 36.4146 22.8128 33.2674C23.2967 32.6347 23.6113 31.889 23.7267 31.1008C23.7369 30.2075 22.8077 30.6542 21.673 31.5013C17.9149 34.325 13.9411 37.9702 9.84407 41.6565C8.60162 42.7621 7.32495 43.8334 6.01404 44.8705L5.53657 45.2658L5.31067 45.4917L4.99749 45.8049C4.56786 46.2208 4.20736 46.7026 3.9296 47.2321C3.36264 48.295 3.14016 49.5079 3.29297 50.7028C3.4427 51.9176 3.96456 53.0564 4.78699 53.9629C5.29527 54.4815 5.54171 54.656 5.84462 54.9589L6.75848 55.8009C7.97013 56.9236 9.16124 58.0702 10.3318 59.2408C12.6695 61.5853 14.9268 64.0035 17.1037 66.4952L17.9354 67.4502Z" fill="white"/>
<path d="M64.9805 79.9765C65.4567 79.5521 65.8669 79.0589 66.1972 78.5132C66.8535 77.4126 67.1513 76.1352 67.0495 74.8578C66.9551 73.5828 66.461 72.3702 65.6376 71.3923C65.4334 71.1522 65.2102 70.929 64.9702 70.7248L64.4671 70.2936L63.5172 69.4875L63.3324 69.3027C64.4936 68.9521 65.556 68.333 66.4334 67.4955C67.6052 66.3619 68.402 64.8969 68.7168 63.2972C69.0316 61.6975 68.8493 60.0398 68.1944 58.5468C67.513 57.0619 66.4002 55.8167 65.001 54.9734C63.6051 54.1232 61.9797 53.7273 60.3491 53.8404C58.7186 53.9535 57.1634 54.5701 55.8983 55.6049C54.6813 56.5955 53.7948 57.9333 53.3569 59.4401L52.1401 58.2233C50.1121 56.0824 48.1201 54.5524 47.5451 55.2507C46.9701 55.9489 47.7556 58.0796 49.7219 60.508C50.4921 61.4561 51.2707 62.3888 52.058 63.3061C52.1804 63.448 52.3307 63.5633 52.4995 63.6449L52.5508 63.6963C52.9726 63.8942 53.4359 63.9877 53.9014 63.9689C54.367 63.9502 54.8212 63.8197 55.2257 63.5884C55.3609 63.5079 55.4897 63.4169 55.6107 63.3163L55.852 63.075L56.0266 62.9005C56.14 62.7829 56.243 62.6558 56.3347 62.5205C56.5079 62.2668 56.6412 61.9881 56.73 61.694C56.7717 61.5577 56.8043 61.4187 56.8275 61.2781L56.8635 61.1189C56.884 61.0163 56.9148 60.9238 56.9353 60.8314C57.1465 60.1023 57.5616 59.4486 58.1316 58.9472C58.7861 58.3628 59.6133 58.0076 60.4878 57.9353C61.3623 57.8631 62.2366 58.0777 62.9782 58.5468C63.1909 58.6896 63.3917 58.8493 63.5789 59.0242C63.9488 59.3704 64.2501 59.7832 64.4671 60.241C64.8906 61.1826 64.9456 62.2489 64.6211 63.2291C64.2788 64.2154 63.5714 65.0331 62.6445 65.5137C62.4095 65.6342 62.1637 65.7322 61.9103 65.8064C61.7819 65.8423 61.5355 65.8936 61.5201 65.8988C61.5047 65.9039 61.2788 65.9347 61.094 65.9861C60.901 66.0377 60.7135 66.1082 60.5343 66.1966C60.2464 66.3383 59.9843 66.5275 59.7591 66.7562L59.5537 66.9615C59.4762 67.0311 59.4025 67.1048 59.333 67.1823C59.2017 67.3488 59.0898 67.5297 58.9992 67.7214C58.8232 68.1029 58.7321 68.518 58.7321 68.9382C58.7321 69.3583 58.8232 69.7734 58.9992 70.1549L59.0506 70.2063C59.1327 70.3776 59.2499 70.5298 59.3946 70.6529L62.742 73.528C63.0804 73.8755 63.3176 74.3086 63.428 74.7809C63.5383 75.2532 63.5177 75.7466 63.3684 76.208C63.2236 76.5167 63.0154 76.7913 62.7574 77.0141C62.7079 77.0738 62.6529 77.1288 62.5931 77.1784L62.3621 77.3581L61.7768 77.7996C60.9896 78.3815 60.204 78.989 59.4202 79.6222C57.8441 80.9211 56.3193 82.2919 54.8304 83.7089C53.3415 85.1259 51.9091 86.5994 50.5177 88.1243L49.4806 89.2743L48.9724 89.8544C48.9148 89.92 48.853 89.9817 48.7875 90.0393C48.7516 90.0851 48.7102 90.1265 48.6643 90.1625C48.3031 90.4638 47.844 90.6223 47.3739 90.6081C46.9037 90.5939 46.4551 90.408 46.1127 90.0855L45.9895 89.9623L45.7174 89.6902L45.2039 89.1049L44.172 87.9497C42.7858 86.4129 41.3619 84.9137 39.9004 83.4522C36.9997 80.5515 33.9449 77.7637 30.7977 75.0991C30.165 74.6151 29.4193 74.3006 28.6311 74.1852C27.7378 74.1749 28.1844 75.1042 29.0316 76.2388C31.8553 79.997 35.5005 83.9708 39.1868 88.0678C40.2923 89.3102 41.3636 90.5869 42.4007 91.8978L42.7961 92.3753L43.022 92.6012L43.3351 92.9144C43.751 93.344 44.2329 93.7045 44.7624 93.9823C45.8253 94.5492 47.0381 94.7717 48.2331 94.6189C49.4479 94.4692 50.5867 93.9473 51.4932 93.1249C52.0117 92.6166 52.1863 92.3702 52.4892 92.0672L53.3312 91.1534C54.4539 89.9417 55.6005 88.7506 56.771 87.58C59.1156 85.2423 61.5338 82.985 64.0255 80.8082L64.9805 79.9765Z" fill="white"/>
<path d="M33.542 17.3252C33.0657 17.7495 32.6556 18.2427 32.3252 18.7884C31.6689 19.889 31.3711 21.1665 31.473 22.4439C31.5674 23.7188 32.0614 24.9315 32.8848 25.9094C33.089 26.1494 33.3122 26.3726 33.5523 26.5768L34.0554 27.0081L35.0052 27.8141L35.19 27.999C34.0288 28.3496 32.9665 28.9687 32.089 29.8062C30.9172 30.9397 30.1204 32.4047 29.8056 34.0044C29.4908 35.6041 29.6731 37.2618 30.3281 38.7549C31.0094 40.2397 32.1222 41.4849 33.5215 42.3282C34.9174 43.1785 36.5428 43.5744 38.1733 43.4612C39.8039 43.3481 41.3591 42.7316 42.6242 41.6967C43.8412 40.7061 44.7276 39.3684 45.1656 37.8615L46.3824 39.0783C48.4103 41.2192 50.4024 42.7492 50.9774 42.051C51.5524 41.3527 50.7669 39.2221 48.8005 36.7937C48.0304 35.8456 47.2517 34.9129 46.4645 33.9956C46.342 33.8536 46.1918 33.7383 46.023 33.6567L45.9716 33.6054C45.5498 33.4075 45.0866 33.314 44.621 33.3327C44.1555 33.3515 43.7013 33.482 43.2968 33.7132C43.1615 33.7938 43.0328 33.8847 42.9117 33.9853L42.6704 34.2266L42.4959 34.4012C42.3825 34.5188 42.2794 34.6459 42.1878 34.7811C42.0146 35.0348 41.8812 35.3136 41.7925 35.6077C41.7508 35.744 41.7182 35.8829 41.6949 36.0235L41.659 36.1827C41.6385 36.2854 41.6077 36.3778 41.5871 36.4702C41.3759 37.1994 40.9609 37.8531 40.3909 38.3544C39.7363 38.9388 38.9092 39.2941 38.0346 39.3663C37.1601 39.4386 36.2859 39.2239 35.5443 38.7549C35.3316 38.6121 35.1307 38.4524 34.9436 38.2774C34.5737 37.9312 34.2724 37.5184 34.0554 37.0606C33.6318 36.119 33.5769 35.0528 33.9014 34.0726C34.2437 33.0862 34.9511 32.2685 35.878 31.7879C36.1129 31.6674 36.3588 31.5694 36.6122 31.4953C36.7405 31.4593 36.987 31.408 37.0024 31.4029C37.0178 31.3977 37.2437 31.3669 37.4285 31.3156C37.6215 31.264 37.8089 31.1934 37.9881 31.1051C38.2761 30.9634 38.5382 30.7742 38.7634 30.5455L38.9687 30.3401C39.0462 30.2705 39.1199 30.1968 39.1895 30.1193C39.3207 29.9528 39.4327 29.772 39.5232 29.5803C39.6992 29.1988 39.7904 28.7836 39.7904 28.3635C39.7904 27.9433 39.6992 27.5282 39.5232 27.1467L39.4719 27.0954C39.3897 26.924 39.2725 26.7719 39.1279 26.6487L35.7805 23.7736C35.4421 23.4262 35.2049 22.993 35.0945 22.5207C34.9841 22.0485 35.0047 21.555 35.1541 21.0936C35.2988 20.785 35.507 20.5103 35.7651 20.2875C35.8146 20.2278 35.8696 20.1728 35.9293 20.1233L36.1604 19.9436L36.7457 19.502C37.5329 18.9202 38.3184 18.3126 39.1022 17.6794C40.6784 16.3805 42.2032 15.0097 43.6921 13.5927C45.181 12.1757 46.6134 10.7022 48.0047 9.17738L49.0418 8.02734L49.5501 7.44718C49.6077 7.38167 49.6694 7.31994 49.7349 7.26236C49.7709 7.21649 49.8123 7.17512 49.8581 7.13914C50.2194 6.83787 50.6784 6.67934 51.1486 6.69353C51.6187 6.70772 52.0674 6.89364 52.4098 7.21615L52.533 7.33936L52.8051 7.61147L53.3185 8.19676L54.3505 9.35193C55.7367 10.8887 57.1605 12.3879 58.622 13.8494C61.5228 16.7502 64.5776 19.538 67.7248 22.2026C68.3575 22.6865 69.1032 23.001 69.8914 23.1164C70.7847 23.1267 70.338 22.1974 69.4909 21.0628C66.6672 17.3046 63.022 13.3308 59.3357 9.23384C58.2301 7.99139 57.1588 6.71472 56.1217 5.40381L55.7264 4.92634L55.5005 4.70044L55.1873 4.38726C54.7714 3.95763 54.2896 3.59713 53.7601 3.31937C52.6972 2.75241 51.4843 2.52993 50.2894 2.68274C49.0746 2.83247 47.9358 3.35433 47.0293 4.17676C46.5107 4.68504 46.3362 4.93148 46.0332 5.23439L45.1913 6.14825C44.0686 7.3599 42.922 8.55101 41.7514 9.72158C39.4068 12.0593 36.9887 14.3166 34.4969 16.4935L33.542 17.3252Z" fill="white"/>
</svg>
